<?xml version="1.0" encoding="UTF-8"?>
<!DOCTYPE svg PUBLIC "-//W3C//DTD SVG 1.1//EN" "http://www.w3.org/Graphics/SVG/1.1/DTD/svg11.dtd">
<!-- Creator: CorelDRAW -->
<svg xmlns="http://www.w3.org/2000/svg" xml:space="preserve" width="21.8697mm" height="21.8696mm" version="1.1" style="shape-rendering:geometricPrecision; text-rendering:geometricPrecision; image-rendering:optimizeQuality; fill-rule:evenodd; clip-rule:evenodd"
viewBox="0 0 15097.34 15097.27"
 xmlns:xlink="http://www.w3.org/1999/xlink"
 xmlns:xodm="http://www.corel.com/coreldraw/odm/2003">
 <defs>
  <style type="text/css">
   <![CDATA[
    .fil0 {fill:#47AE53;fill-rule:nonzero}
   ]]>
  </style>
 </defs>
 <g id="Layer_x0020_1">
  <metadata id="CorelCorpID_0Corel-Layer"/>
  <path class="fil0" d="M12886.42 2210.92c-1425.81,-1425.74 -3321.46,-2210.92 -5337.71,-2210.92 -2016.32,0 -3911.97,785.18 -5337.71,2210.92 -1425.74,1425.74 -2210.99,3321.39 -2210.99,5337.71 0,2016.32 785.25,3911.9 2210.99,5337.71 1425.74,1425.74 3321.39,2210.92 5337.71,2210.92 2016.25,0 3911.9,-785.18 5337.71,-2210.92 1425.67,-1425.81 2210.92,-3321.39 2210.92,-5337.71 0,-2016.32 -785.25,-3911.97 -2210.92,-5337.71zm-11986.98 5780.01l972.82 0 0 -884.59 -972.82 0c95.47,-1466.54 664.72,-2841.13 1634.01,-3945.8l687.85 687.85 625.51 -625.51 -687.98 -687.92c1104.94,-970.26 2480.22,-1540.06 3947.52,-1635.6l0 972.82 884.66 0 0 -972.82c1466.54,95.54 2841.13,664.72 3945.73,1634.01l-687.85 687.85 625.51 625.44 687.98 -687.92c970.26,1105.01 1540.06,2480.22 1635.53,3947.59l-972.82 0 0 884.59 972.82 0c-95.47,1466.54 -664.72,2841.13 -1634.01,3945.73l-687.78 -687.78 -625.51 625.51 687.92 687.92c-1104.94,970.26 -2480.22,1540.06 -3947.59,1635.53l0 -972.82 -884.59 0 0 972.82c-1466.54,-95.47 -2841.13,-664.65 -3945.73,-1633.95l687.78 -687.85 -625.44 -625.51 -687.92 687.92c-970.26,-1104.94 -1540.06,-2480.22 -1635.6,-3947.52z"/>
  <path class="fil0" d="M10003.11 8223.37l0 3.93 6.14 1684.75 884.59 -3.24 -6.14 -1682.82c2.9,-612.74 -120.95,-1024.11 -389.76,-1294.23 -209.1,-210.21 -494,-316.79 -846.69,-316.79 -165.06,0 -323.49,31.34 -470.53,90.92l0 -1299.55 -884.59 0 0 4504.07 884.59 0 0 -1684.68 0 0c0,-427.52 137.24,-721.81 414.27,-721.81 0,0 408.12,-47.36 408.12,719.46l0 0z"/>
  <path class="fil0" d="M4205.08 8504.75c0,884.04 719.19,1603.23 1603.16,1603.23 884.04,0 1603.29,-719.19 1603.29,-1603.23 0,-493.59 -224.36,-935.61 -576.29,-1229.96 164.09,-216.21 261.7,-485.51 261.7,-777.31 0,-710.56 -578.08,-1288.64 -1288.71,-1288.64 -710.56,0 -1288.64,578.08 -1288.64,1288.64 0,291.8 97.61,561.1 261.7,777.38 -351.86,294.36 -576.22,736.38 -576.22,1229.89zm1603.23 718.64c-396.25,0 -718.57,-322.38 -718.57,-718.64 0,-396.25 322.32,-718.64 718.57,-718.64 396.25,0 718.64,322.38 718.64,718.64 0,396.25 -322.38,718.64 -718.64,718.64zm-404.12 -2725.84c0,-222.84 181.28,-404.12 404.05,-404.12 222.84,0 404.12,181.28 404.12,404.12 0,222.77 -181.28,404.05 -404.12,404.05 -222.77,0 -404.05,-181.28 -404.05,-404.05z"/>
 </g>
</svg>
