<?xml version="1.0" encoding="UTF-8"?>
<!DOCTYPE svg PUBLIC "-//W3C//DTD SVG 1.1//EN" "http://www.w3.org/Graphics/SVG/1.1/DTD/svg11.dtd">
<!-- Creator: CorelDRAW -->
<svg xmlns="http://www.w3.org/2000/svg" xml:space="preserve" width="22.0668mm" height="22.0669mm" version="1.1" style="shape-rendering:geometricPrecision; text-rendering:geometricPrecision; image-rendering:optimizeQuality; fill-rule:evenodd; clip-rule:evenodd"
viewBox="0 0 264.91 264.91"
 xmlns:xlink="http://www.w3.org/1999/xlink"
 xmlns:xodm="http://www.corel.com/coreldraw/odm/2003">
 <defs>
  <style type="text/css">
   <![CDATA[
    .fil0 {fill:#47AE53;fill-rule:nonzero}
   ]]>
  </style>
 </defs>
 <g id="Layer_x0020_1">
  <metadata id="CorelCorpID_0Corel-Layer"/>
  <path class="fil0" d="M156.22 96.33c32.87,0 72.57,-23.89 72.57,-53.56 0,-7.62 -2.95,-14.5 -8.63,-20.52 5.67,-4.23 11.51,-7.92 17.35,-10.84 2.98,-1.49 4.18,-5.1 2.69,-8.08 -1.49,-2.98 -5.1,-4.17 -8.08,-2.69 -7.41,3.7 -14.79,8.61 -21.9,14.21 -3.81,-1.81 -7.86,-2.8 -12.15,-2.8 -29.67,0 -53.56,39.7 -53.56,72.57 0,6.46 5.26,11.72 11.72,11.72zm41.84 -72.25c0.45,0 0.87,0.1 1.3,0.14 -12.44,11.76 -23.25,25.53 -30.15,39.32 -1.48,2.97 -0.28,6.59 2.69,8.08 0.87,0.43 1.79,0.64 2.69,0.64 2.2,0 4.33,-1.22 5.39,-3.33 6.91,-13.83 18.1,-27.68 30.89,-39.05 0.01,0.01 0.03,0.02 0.05,0.04 3.91,3.92 5.82,8.12 5.82,12.86 0,21.88 -33.57,41.37 -60.21,41.52 0.15,-26.63 19.64,-60.21 41.52,-60.21z"/>
  <path class="fil0" d="M2.41 179.41c1.08,0.81 2.35,1.21 3.61,1.21 1.82,0 3.63,-0.83 4.82,-2.41 0.34,-0.45 35.24,-45.75 115.59,-45.75 3.33,0 6.02,-2.69 6.02,-6.02 0,-3.33 -2.69,-6.02 -6.02,-6.02 -86.31,0 -123.68,48.51 -125.23,50.58 -1.99,2.66 -1.45,6.43 1.21,8.43z"/>
  <path class="fil0" d="M228.78 96.33c-27.02,0 -34.7,13.79 -35.49,15.37 -1.46,2.92 -0.28,6.39 2.59,7.93 2.89,1.55 6.49,0.43 8.11,-2.4 0.2,-0.36 5.28,-8.85 24.79,-8.85 21.73,0 24.08,16.84 24.08,24.08 0,9.37 -9.96,36.12 -54.19,36.12 -26.19,0 -41.45,-3.67 -54.93,-6.91 -10.99,-2.64 -21.38,-5.13 -35.38,-5.13 -30.97,0 -88.35,24.75 -107.74,63.53 -1.48,2.98 -0.28,6.59 2.69,8.08 0.87,0.43 1.79,0.64 2.69,0.64 2.2,0 4.33,-1.22 5.39,-3.33 17.1,-34.2 69.68,-56.88 96.97,-56.88 12.58,0 21.84,2.23 32.57,4.8 14.12,3.39 30.13,7.24 57.74,7.24 54.06,0 66.23,-35.67 66.23,-48.16 0,-16.66 -9.47,-36.12 -36.12,-36.12z"/>
  <path class="fil0" d="M126.43 192.66c-63.82,0 -77.41,38.6 -77.96,40.24 -1.05,3.16 0.66,6.57 3.81,7.61 3.18,1.07 6.56,-0.64 7.62,-3.8 0.11,-0.32 11.3,-32.01 66.53,-32.01 54.07,0 78.27,15.12 78.27,30.1 0,14.93 -9.82,18.06 -18.06,18.06 -7.77,0 -16.94,-7.43 -19.84,-10.28 -2.35,-2.34 -6.15,-2.35 -8.5,0.02 -2.35,2.35 -2.35,6.16 0,8.5 1.41,1.41 14.22,13.81 28.34,13.81 14.56,0 30.1,-7.91 30.1,-30.1 0,-20.37 -23.73,-42.14 -90.31,-42.14z"/>
 </g>
</svg>
