<?xml version="1.0" encoding="UTF-8"?>
<!DOCTYPE svg PUBLIC "-//W3C//DTD SVG 1.1//EN" "http://www.w3.org/Graphics/SVG/1.1/DTD/svg11.dtd">
<!-- Creator: CorelDRAW -->
<svg xmlns="http://www.w3.org/2000/svg" xml:space="preserve" width="25.167mm" height="24.158mm" version="1.1" style="shape-rendering:geometricPrecision; text-rendering:geometricPrecision; image-rendering:optimizeQuality; fill-rule:evenodd; clip-rule:evenodd"
viewBox="0 0 401.84 385.73"
 xmlns:xlink="http://www.w3.org/1999/xlink"
 xmlns:xodm="http://www.corel.com/coreldraw/odm/2003">
 <defs>
  <style type="text/css">
   <![CDATA[
    .fil0 {fill:#47AE53;fill-rule:nonzero}
   ]]>
  </style>
 </defs>
 <g id="Layer_x0020_1">
  <metadata id="CorelCorpID_0Corel-Layer"/>
  <path class="fil0" d="M400.44 97.32l-43.2 -89.49c-2.33,-4.79 -7.2,-7.83 -12.53,-7.83 -2.17,0 -4.32,0.51 -6.26,1.48l-34.94 17.79c-4.64,2.4 -7.55,7.18 -7.55,12.4 0,2.09 0.47,4.15 1.37,6.03l1.36 2.79c-2.07,0.43 -4.19,0.65 -6.31,0.65 -3.92,0 -7.81,-0.75 -11.45,-2.2l-50.32 -20.43c-2.71,-0.9 -5.55,-1.37 -8.41,-1.37 -5.05,0 -10,1.44 -14.26,4.14l-106.39 66.76 -51.15 0c-7.65,0.01 -13.86,6.22 -13.87,13.87l0 97.97c0.01,7.65 6.21,13.86 13.87,13.86l177.06 0c7.65,-0.01 13.86,-6.21 13.87,-13.86l0 -40.03 44.73 -6.13c4.03,-0.56 7.91,-1.92 11.39,-4.01l42.17 -25.03c1.8,6.13 7.43,10.34 13.82,10.34 2.19,0 4.35,-0.5 6.31,-1.46l34.57 -17.9c4.61,-2.36 7.51,-7.11 7.51,-12.29 0,-2.1 -0.48,-4.17 -1.4,-6.06l0 -0zm-350.04 5.09l13.35 0c0.11,0.6 0.17,1.22 0.17,1.83 0,5.58 -4.52,10.1 -10.1,10.1 -1.04,0 -2.08,-0.16 -3.07,-0.48l-0.34 -11.45zm13.36 97c-3.15,-0.12 -9.71,0.2 -12.87,0.49l0 -11.92c0.81,-0.2 1.64,-0.3 2.48,-0.3 5.78,0 10.47,4.69 10.47,10.47 0,0.42 -0.03,0.84 -0.08,1.26l-0 0zm136.64 0l-122.29 0c0.02,-0.4 0.15,-0.78 0.15,-1.18 -0.01,-13.75 -11.16,-24.9 -24.92,-24.9 -0.82,0 -1.64,0.04 -2.45,0.12l0 -45.04c0.81,0.08 1.64,0.12 2.45,0.12 13.75,0 24.91,-11.15 24.91,-24.9 0,-0.41 -0.13,-0.81 -0.15,-1.22l148.88 -0.48 0 7 -26.09 10.12c-22.16,7.5 -23.36,44.78 2.89,45.79 1.28,0.19 21.39,-2.82 23.2,-3l0 11.56c-0.63,-0.05 -1.26,-0.07 -1.89,-0.07 -13.66,0 -24.73,11.08 -24.73,24.73 0,0.45 0.01,0.91 0.04,1.35l0 0zm27.07 -111.35l-32.27 0c11.5,-4.97 26.76,-12.94 39.31,-5.49l19.64 11.08c0.86,0.47 1.4,1.38 1.4,2.36 0,1.1 -0.67,2.09 -1.68,2.5l-12.53 4.86c0.04,-0.42 0.06,-0.84 0.06,-1.26 0,-7.71 -6.22,-13.97 -13.93,-14.04l0 0zm-12.72 111.35c-0.05,-0.42 -0.08,-0.84 -0.08,-1.27 0,-5.78 4.68,-10.46 10.46,-10.46 0.67,0 1.34,0.06 2,0.19l0.34 11.54 -12.72 0zm75.41 -62.04c-1.83,1.11 -3.88,1.84 -6,2.14l-79.68 10.93c-10.48,0.03 -5.98,-16.15 1.62,-18.01l52.96 -20.54c6.47,-2.62 10.72,-8.91 10.72,-15.9 0,-6.09 -3.23,-11.72 -8.48,-14.8l-19.73 -11.12c-23.1,-14.81 -60.67,8.49 -74.91,18l-38.09 0 87.03 -54.61c1.97,-1.28 4.28,-1.97 6.63,-1.97 1.16,0 2.32,0.17 3.43,0.5l49.89 20.27c5.36,2.15 11.11,3.26 16.89,3.26 4.29,0 8.57,-0.61 12.69,-1.81l28.22 58.03 -43.18 25.63zm63.67 -16.33c0,0 -43.33,-89.07 -43.38,-89.18l33.87 -17.79 43.42 88.86 -33.91 18.11z"/>
  <path class="fil0" d="M169.63 153.15c-0.71,-0.23 -1.45,-0.34 -2.19,-0.34 -3.12,0 -5.89,2.02 -6.83,5 -3.01,9.43 -11.78,15.83 -21.68,15.83 -12.57,0 -22.76,-10.19 -22.76,-22.76 0,-12.57 10.19,-22.76 22.76,-22.76 6.61,0 12.9,2.88 17.22,7.88 1.36,1.49 3.29,2.35 5.31,2.35 3.96,0 7.18,-3.21 7.18,-7.18 0,-1.69 -0.6,-3.32 -1.68,-4.62 -7.05,-8.15 -17.31,-12.83 -28.09,-12.83 -20.52,0 -37.16,16.64 -37.16,37.16 0,20.52 16.64,37.16 37.16,37.16 16.17,0 30.5,-10.47 35.4,-25.88 0.23,-0.71 0.34,-1.45 0.34,-2.19 0,-3.12 -2.02,-5.88 -4.99,-6.83l0 0z"/>
  <path class="fil0" d="M79.91 143.74l-12.42 0c-3.96,0 -7.18,3.21 -7.18,7.18 0,3.96 3.21,7.18 7.18,7.18l12.42 0c3.92,-0.06 7.08,-3.25 7.08,-7.18 0,-3.92 -3.15,-7.12 -7.08,-7.18l-0 0z"/>
  <path class="fil0" d="M267.16 238.97c-3.23,-2.23 -7.06,-3.44 -10.99,-3.44 -5.62,0 -10.97,2.46 -14.63,6.72l-34.22 37.19c-2.38,-3.6 -5.89,-6.31 -9.97,-7.69l-38.03 -12.59c-11.93,-3.76 -23.26,-9.34 -33.52,-16.5 -23.82,-16.87 -48.43,-13.74 -69.95,8.45 -3.29,-6.29 -9.81,-10.24 -16.92,-10.24 -3.09,0 -6.14,0.75 -8.88,2.19l-17.45 8.69c-7.73,3.93 -12.61,11.87 -12.61,20.54 0,2.54 0.42,5.06 1.24,7.46l5.17 14.42c1.05,2.8 3.73,4.65 6.72,4.65 3.96,0 7.18,-3.21 7.18,-7.18 0,-0.79 -0.13,-1.57 -0.38,-2.31l-5.17 -14.44c-0.26,-0.83 -0.39,-1.71 -0.39,-2.58 0,-3.24 1.79,-6.21 4.66,-7.73l17.45 -8.69c0.76,-0.46 1.63,-0.71 2.52,-0.71 2.12,0 3.98,1.38 4.6,3.41l33.51 93.13c0.25,0.83 0.38,1.69 0.38,2.56 0,3.27 -1.83,6.26 -4.73,7.76l-17.37 8.68c-0.76,0.46 -1.64,0.7 -2.52,0.7 -2.12,0 -4,-1.36 -4.66,-3.38l-17.51 -48.87c-1.05,-2.8 -3.73,-4.65 -6.72,-4.65 -3.96,0 -7.18,3.21 -7.18,7.18 0,0.79 0.13,1.57 0.38,2.32l17.52 48.9c2.75,7.68 10.04,12.81 18.21,12.81 3.1,0 6.15,-0.75 8.9,-2.17l17.34 -8.67c7.76,-3.94 12.66,-11.91 12.66,-20.61 0,-0.21 -0.01,-0.42 -0.01,-0.62 6.42,3.34 48.73,20.55 56.23,23.74 4.15,1.7 8.58,2.59 13.06,2.59 12.92,1.16 27.86,-12.17 38.19,-18.6 10.7,-7.31 20.78,-15.67 29.98,-24.81 1.31,-1.33 2.04,-3.12 2.04,-4.99 0,-3.96 -3.21,-7.17 -7.17,-7.17 -1.85,0 -3.62,0.71 -4.96,1.99 -8.58,8.51 -17.96,16.28 -27.93,23.1l-18.4 12.36c-3.41,2.45 -7.51,3.77 -11.71,3.77 -2.62,0 -5.22,-0.52 -7.64,-1.51 -15.23,-6.43 -52.87,-21.66 -67.02,-28.77l-24.89 -69.18c17.8,-21.5 36.62,-25.49 55.91,-11.83 18.05,14.1 53.2,23.43 75.46,31.05 6.99,2.5 5.19,17.08 -2.14,16.19l-43.82 -8.11c-2.74,-0.48 -5.54,-0.72 -8.33,-0.72 -8.99,0 -17.82,2.52 -25.46,7.25 -2.08,1.31 -3.35,3.61 -3.35,6.07 0,3.96 3.21,7.17 7.17,7.17 1.28,0 2.54,-0.34 3.65,-1 5.34,-3.38 11.55,-5.18 17.87,-5.18 1.96,0 3.92,0.18 5.85,0.52l43.91 8.13c0.81,0.09 1.62,0.14 2.43,0.14 11.1,0 20.25,-8.72 20.8,-19.81l40.6 -44.11c0.93,-1.3 2.44,-2.07 4.04,-2.07 1,0 1.98,0.3 2.81,0.87 2.93,2.88 4.59,6.81 4.59,10.92 0,2.47 -0.6,4.92 -1.75,7.1 -6.85,12.95 -14.93,25.33 -24.03,36.8 -0.97,1.25 -1.49,2.78 -1.49,4.37 0,3.96 3.21,7.18 7.18,7.18 2.13,0 4.16,-0.95 5.52,-2.59 13.96,-19.72 45.19,-53.8 18.19,-75.56l0 0z"/>
 </g>
</svg>
