<?xml version="1.0" encoding="UTF-8"?>
<!DOCTYPE svg PUBLIC "-//W3C//DTD SVG 1.1//EN" "http://www.w3.org/Graphics/SVG/1.1/DTD/svg11.dtd">
<!-- Creator: CorelDRAW -->
<svg xmlns="http://www.w3.org/2000/svg" xml:space="preserve" width="27.6653mm" height="29.5372mm" version="1.1" style="shape-rendering:geometricPrecision; text-rendering:geometricPrecision; image-rendering:optimizeQuality; fill-rule:evenodd; clip-rule:evenodd"
viewBox="0 0 29128.06 31098.93"
 xmlns:xlink="http://www.w3.org/1999/xlink"
 xmlns:xodm="http://www.corel.com/coreldraw/odm/2003">
 <defs>
  <style type="text/css">
   <![CDATA[
    .fil0 {fill:#47AE53;fill-rule:nonzero}
   ]]>
  </style>
 </defs>
 <g id="Layer_x0020_1">
  <metadata id="CorelCorpID_0Corel-Layer"/>
  <path class="fil0" d="M1349.78 30698.42c29.59,228.89 224.58,400.3 455.37,400.3 4.11,0 8.32,-0.11 12.32,-0.21l6058.13 0.11c6.63,0.21 13.48,0.32 20.11,0.32 249.53,0 451.89,-202.26 451.89,-451.79 0,-46.22 -7.16,-92.23 -20.95,-136.24l-775.13 -2538.58 2414.55 -1525.09c206.05,-113.08 437.68,-172.46 672.89,-172.46 115.71,0 231.42,14.42 343.55,42.75 9.69,2.53 19.48,5.05 29.38,6.74l5042.32 928.95c383.88,68.86 775.86,103.6 1166.27,103.6 1013.6,0 2015.94,-234.47 2924.46,-681.42 20.22,-9.37 39.59,-20.64 57.91,-33.27l8720.74 -5987.8c127.92,-87.81 204.47,-233.21 204.47,-388.4 0,-85.6 -23.37,-169.72 -67.49,-243 -449.58,-748.91 -1259.87,-1207.75 -2133.75,-1207.75 -413.46,0 -821.24,103.6 -1184.59,300.17l-81.18 43.8c-634.78,-716.59 -1689.55,-984.33 -2498.78,-574.03l-10.53 5.47 -294.59 158.67c-490.85,-395.67 -1102.67,-612.04 -1733.03,-612.04 -482.85,0 -957.59,127.08 -1376.11,367.66l-1867.27 1015.92 -2490.47 0c-530.02,-0.42 -1054.03,-121.29 -1530.98,-351.45l-345.87 -167.51c-820.5,-399.35 -1724.4,-607.72 -2637.76,-607.72 -1312.41,0 -2590.17,429.15 -3636.84,1220.39 -10.32,7.79 -20.22,15.9 -30.01,24.43l-834.93 743.54c-280.91,249.85 -610.46,441.05 -966.64,561.18l-446.63 -1479.08c-58.86,-201.2 -241,-341.66 -450.63,-347.66l-4038.82 0c-136.56,5.26 -264.8,68.12 -352.71,172.78 -76.23,86.02 -118.45,197.2 -118.45,312.18 0,19.06 1.26,38.32 3.58,57.28l1346.2 11039.27zm22243.21 -11274.9c382.3,-190.68 854.93,-62.33 1194.48,207.21l-3185.57 1718.61 -98.55 52.01c-91.71,-233.11 -213.52,-454.42 -361.03,-657.2l2450.67 -1320.62zm-3389.41 -94.23c3.79,-2 7.58,-4.11 11.16,-6.11 276.38,-159.72 590.24,-244.16 909.47,-244.16 272.59,0 542.23,61.59 787.65,179.62l-1474.13 794.29c-251.74,-176.15 -530.54,-312.81 -824.08,-403.04l589.92 -320.6zm-13203.03 1756.93l820.19 -730.27c881.15,-661.2 1953.71,-1019.08 3055.54,-1019.08 771.23,0 1534.35,175.83 2227.25,513.28l345.87 167.83c604.88,291.33 1268.92,444.1 1940.66,445.15l3354.14 0.11c925.37,0.63 1733.13,629.51 1961.08,1526.35l-2307.06 -104.76c-217.73,-9.58 -440.84,-14.95 -660.47,-14.95 -669.52,0 -1340.73,46.43 -2003.09,137.51 -229.21,35.69 -398.72,233.53 -398.72,465.9 0,260.27 211,471.27 471.16,471.27 19.16,0 38.32,-1.26 57.38,-3.58 620.77,-85.39 1248.08,-128.87 1875.38,-128.87 204.05,0 413.15,4.95 615.51,13.37l2860.87 129.4c6.74,0 14.11,0.53 21.27,0.53 260.38,0.42 471.37,-210.57 471.37,-470.74 0,-42.01 -1.37,-83.7 -3.05,-125.4l339.13 -178.78 4144.43 -2235.88c226.16,-122.34 479.69,-186.78 737.01,-186.78 387.04,0 760.39,145.3 1045.61,406.72l-8274.43 5681.2c-770.91,373.77 -1619.11,569.08 -2476.25,569.08 -334.39,0 -668.89,-30.53 -997.81,-88.65l-5026.84 -925.69c-182.46,-44.43 -369.66,-67.28 -557.5,-67.28 -400.41,0 -794.81,103.29 -1143.74,299.12 -7.37,4.11 -14.74,8.42 -21.79,12.95l-2207.88 1395.69 -1583.84 -5195.09c486.32,-160.25 936.32,-419.57 1318.62,-759.75l0 0.11zm-2839.6 -1026.87l3078.39 10096.84 -5004.73 0 -1231.34 -10096.84 3157.67 0z"/>
  <path class="fil0" d="M4529.04 30002.78c706.27,0 1279.03,-572.76 1279.03,-1278.93 0,-706.27 -572.76,-1279.03 -1278.93,-1279.03 -706.27,0 -1278.93,572.76 -1278.93,1279.03 0.63,705.85 572.97,1278.29 1278.93,1278.93l-0.11 0zm0 -1615.53c185.94,0 336.6,150.67 336.6,336.6 0,185.83 -150.67,336.5 -336.5,336.5 -185.83,0 -336.6,-150.67 -336.6,-336.5 0.21,-185.83 150.77,-336.39 336.6,-336.6l-0.11 0z"/>
  <path class="fil0" d="M7114.58 9413.42l1278.5 123.19c144.77,525.38 358.08,1032.34 632.46,1503.82l-811.98 980.44c-69.7,84.44 -108.13,190.99 -108.13,300.81 0,124.98 49.7,244.9 138.14,333.23l1533.19 1533.3c88.34,88.23 208.26,138.03 333.23,138.03 109.71,0 216.05,-38.32 300.49,-108.24l982.75 -814.19c470.74,273.01 976.86,487.9 1501.08,634.25l123.29 1283.03c22.95,242.69 225.95,428.52 469.58,430.2l2173.76 0c243.53,-2 446.1,-187.83 469.06,-430.2l123.29 -1280.61c525.7,-145.4 1033.08,-358.92 1504.03,-633.41l980.23 811.13c84.44,69.81 190.68,108.13 300.28,108.13 124.98,0 245.11,-49.7 333.34,-138.14l1533.09 -1533.3c88.34,-88.34 138.03,-208.26 138.03,-333.23 0,-109.71 -38.22,-216.05 -108.24,-300.49l-814.5 -983.17c273.85,-471.58 487.9,-976.86 634.25,-1501.82l1259.87 -122.98c241.63,-23.27 425.78,-226.26 425.78,-468.74 0,0 0,0 0,0l0 -2173.87c0,0 0,0 0,0 0,-242.69 -184.46,-445.79 -425.99,-468.95l-1278.5 -123.19c-144.77,-525.38 -358.08,-1032.34 -632.46,-1503.82l811.98 -980.54c69.7,-84.55 108.02,-190.89 108.02,-300.6 0,-123.92 -48.85,-242.9 -135.93,-331.02l-1513.51 -1533.3c-88.44,-89.49 -209.21,-140.03 -335.13,-140.03 -109.71,0 -215.94,38.32 -300.49,108.24l-982.75 814.4c-470.63,-272.9 -976.75,-487.8 -1500.98,-634.25l-123.29 -1264.82c-24.01,-234.37 -221.42,-412.73 -456.95,-412.73 -4.21,0 -8.53,0.11 -12.74,0.21l-2173.55 0c-4,-0.11 -8.11,-0.21 -12.11,-0.21 -235.42,0 -432.84,178.04 -456.95,412.2l-123.4 1271.56c-525.59,143.3 -1032.66,355.56 -1503.4,628.78l-980.96 -813.45c-84.44,-70.12 -190.99,-108.66 -300.91,-108.66 -124.77,0 -244.48,49.59 -332.71,137.51l-1533.3 1532.88c-88.13,88.34 -137.82,208.15 -137.82,333.02 0,109.71 38.22,215.94 108.13,300.49l814.5 982.75c-273.01,470.63 -487.9,976.75 -634.36,1500.87l-1278.93 123.29c-241.85,23.16 -426.41,226.37 -426.41,469.16 0,0 0,0.21 0,0.21l0 2173.76c0,0 0,0 0,0 0,242.69 184.46,445.79 425.99,468.95l0 0.11zm516.43 -2214.82l1184.69 -114.45c203.94,-19.69 371.98,-169.09 415.25,-369.45 144.03,-648.25 406.72,-1267.76 770.39,-1823.37 48.96,-76.33 75.18,-165.09 75.18,-255.64 0,-109.71 -38.32,-216.05 -108.34,-300.49l-755.02 -911.79 926.63 -926.63 911.68 755.02c84.44,70.02 190.89,108.34 300.6,108.34 92.97,0 184.04,-27.59 261.32,-79.07 552.44,-365.24 1170.16,-626.88 1818,-766.49 198.26,-36.75 348.71,-200.26 369.35,-401.04l114.34 -1171.22 1317.99 0 114.45 1171.22c20.11,202.47 170.04,368.19 369.45,408.3 648.89,142.98 1267.45,403.15 1824.1,766.18 75.81,48.96 164.25,74.86 254.27,74.86 110.24,0 217.1,-38.75 301.75,-109.29l909.58 -753.96 911.05 922.21 -757.65 913.26c-69.91,84.44 -108.13,190.78 -108.13,300.49 0,92.97 27.59,183.94 79.07,261.32 365.14,552.86 626.14,1170.8 765.75,1818.1 43.59,200.05 211.63,349.45 415.57,369.14l1184.69 114.45 0 1318.3 -1166.06 113.82c-203.73,19.9 -371.45,169.2 -414.73,369.35 -143.82,649.1 -405.67,1267.87 -769.97,1824 -49.06,76.33 -75.28,165.09 -75.28,255.64 0,109.71 38.22,216.15 108.24,300.6l755.33 911.16 -926.63 926.63 -911.68 -755.02c-84.44,-70.02 -190.89,-108.34 -300.6,-108.34 -92.97,0 -184.04,27.59 -261.32,79.07 -552.86,365.56 -1170.69,625.83 -1817.89,766.07 -200.89,45.48 -349.98,214.89 -369.45,419.89l-114.13 1189.22 -1317.99 0 -114.45 -1189.22c-19.58,-204.47 -168.88,-373.03 -369.45,-417.36 -648.68,-144.35 -1267.87,-406.51 -1823.79,-771.02 -76.12,-49.27 -165.09,-75.49 -255.74,-75.49 -109.6,0 -215.84,38.32 -300.28,108.02l-911.58 754.7 -926.42 -927.16 755.02 -911.68c70.02,-84.55 108.34,-190.89 108.34,-300.6 0,-92.97 -27.59,-184.04 -79.28,-261.43 -365.03,-552.86 -626.04,-1170.8 -765.75,-1818.1 -43.59,-200.05 -211.52,-349.55 -415.57,-369.14l-1184.69 -114.45 -0.21 -1317.46z"/>
  <path class="fil0" d="M14573.87 12560.67c2597.23,0 4703.5,-2106.17 4703.5,-4703.4 0,-2597.23 -2106.27,-4703.5 -4703.5,-4703.5 -2597.12,0 -4703.4,2106.27 -4703.4,4703.5 0,0 0,0 0,0 2.32,2595.96 2107.43,4701.18 4703.5,4703.4l-0.11 0zm0 -8464.47c2076.9,0 3761.18,1684.28 3761.18,3761.07 0,2076.9 -1684.28,3761.18 -3761.18,3761.18 -2076.79,0 -3760.97,-1684.28 -3760.97,-3761.18 2.21,-2076.06 1685.23,-3758.97 3761.18,-3760.86l-0.21 -0.21z"/>
  <path class="fil0" d="M13733.26 9295.61c88.02,85.91 206.15,134.14 329.13,134.14 122.98,0 241.21,-48.22 329.23,-134.03l2255.36 -2201.98c92.34,-88.76 144.56,-211.52 144.56,-339.66 0,-260.17 -211,-471.27 -471.27,-471.27 -124.13,0 -243.42,49.17 -331.55,136.45l-1926.34 1880.54 -922.74 -900.84c-88.23,-87.39 -207.42,-136.45 -331.66,-136.45 -260.17,0 -471.16,211 -471.16,471.16 0,128.13 52.22,250.9 144.56,339.66l1251.87 1222.28z"/>
 </g>
</svg>
