<?xml version="1.0" encoding="UTF-8"?>
<!DOCTYPE svg PUBLIC "-//W3C//DTD SVG 1.1//EN" "http://www.w3.org/Graphics/SVG/1.1/DTD/svg11.dtd">
<!-- Creator: CorelDRAW -->
<svg xmlns="http://www.w3.org/2000/svg" xml:space="preserve" width="25.6278mm" height="25.6279mm" version="1.1" style="shape-rendering:geometricPrecision; text-rendering:geometricPrecision; image-rendering:optimizeQuality; fill-rule:evenodd; clip-rule:evenodd"
viewBox="0 0 346.4 346.4"
 xmlns:xlink="http://www.w3.org/1999/xlink"
 xmlns:xodm="http://www.corel.com/coreldraw/odm/2003">
 <defs>
  <style type="text/css">
   <![CDATA[
    .fil0 {fill:#47AE53}
    .fil1 {fill:#47AE53;fill-rule:nonzero}
   ]]>
  </style>
 </defs>
 <g id="Layer_x0020_1">
  <metadata id="CorelCorpID_0Corel-Layer"/>
  <path id="Path_21_" class="fil0" d="M129.43 287.92c1.09,0.32 2.22,0.49 3.35,0.49 1.14,0 2.28,-0.17 3.38,-0.49 8.08,-2.43 15.78,-4.98 22.82,-7.57 1.98,-0.68 3.43,-2.38 3.8,-4.44 0.37,-2.06 -0.41,-4.16 -2.02,-5.48 -1.62,-1.33 -3.83,-1.67 -5.77,-0.91 -6.81,2.51 -14.26,4.98 -22.27,7.34 -108.6,-32.21 -121.16,-89.84 -121.16,-130.38l0 -98.72 121.24 -36.2 121.24 36.18 0 98.72c0,2.96 -0.05,5.97 -0.23,9.1 -0.09,1.53 0.44,3.04 1.46,4.18 1.02,1.14 2.46,1.84 4,1.92 1.53,0.1 3.04,-0.42 4.19,-1.45 1.14,-1.03 1.82,-2.47 1.89,-4.01 0.19,-3.34 0.24,-6.56 0.24,-9.72l0 -98.75c-0.02,-5.1 -3.37,-9.59 -8.26,-11.07l-121.24 -36.19c-2.14,-0.63 -4.42,-0.63 -6.56,0l-121.24 36.18c-4.89,1.47 -8.25,5.97 -8.27,11.08l0 98.72c0,44.26 13.42,107.07 129.43,141.47z"/>
  <path id="Shape_5_" class="fil1" d="M259.8 173.2c-47.83,0 -86.6,38.77 -86.6,86.6 0,47.83 38.77,86.6 86.6,86.6 47.83,0 86.6,-38.77 86.6,-86.6 -0.05,-47.8 -38.79,-86.54 -86.6,-86.6zm0 161.65c-41.45,0 -75.05,-33.6 -75.05,-75.05 0,-41.45 33.6,-75.05 75.05,-75.05 41.45,0 75.05,33.6 75.05,75.05 -0.05,41.43 -33.62,75.01 -75.05,75.05z"/>
  <path id="Path_20_" class="fil0" d="M302.29 232.27l-65.24 54.36 -19.37 -19.36c-2.27,-2.19 -5.87,-2.16 -8.09,0.07 -2.23,2.23 -2.26,5.83 -0.07,8.09l23.09 23.09c2.11,2.11 5.48,2.26 7.78,0.35l69.28 -57.73c2.36,-2.06 2.64,-5.63 0.63,-8.04 -2.01,-2.41 -5.57,-2.77 -8.02,-0.83l0.01 0z"/>
  <path id="Shape_4_" class="fil1" d="M138.5 56.82c-0.45,-2.79 -2.87,-4.84 -5.7,-4.84 -2.83,0 -5.24,2.05 -5.7,4.84 -4.23,21.51 -12.39,42.06 -24.06,60.62 -3.91,6.09 -8.32,11.85 -13.19,17.21 -19.29,19.76 -19.82,51.14 -1.21,71.54 10.54,11.18 24.94,17.92 40.28,18.83 1.31,0.08 2.6,0.12 3.89,0.12 17.17,0.11 33.58,-7.07 45.15,-19.76 17.75,-20.49 16.85,-51.16 -2.07,-70.57 -4.93,-5.4 -9.4,-11.22 -13.35,-17.38 -11.67,-18.56 -19.82,-39.11 -24.05,-60.61l0 0zm30.91 140.83c-9.3,10.07 -22.34,15.84 -36.05,15.96 -13.7,0.12 -26.85,-5.43 -36.32,-15.34 -14.41,-16.02 -13.82,-40.5 1.34,-55.81 5.3,-5.84 10.11,-12.1 14.36,-18.74 8.49,-13.34 15.22,-27.72 20.04,-42.79 4.82,15.06 11.56,29.44 20.05,42.78 4.32,6.71 9.2,13.04 14.59,18.93 14.84,15.04 15.7,38.94 1.98,55l0 0z"/>
  <path id="Path_19_" class="fil0" d="M131.02 190.46c-6.55,-0.4 -12.71,-3.29 -17.2,-8.08 -2.44,-2.6 -3.87,-5.99 -4.04,-9.55 -0.19,-3.19 -2.93,-5.62 -6.12,-5.43 -3.19,0.19 -5.62,2.93 -5.43,6.12 0.32,6.28 2.87,12.23 7.19,16.79 6.51,6.91 15.41,11.08 24.89,11.65l0.36 0c3.19,0.09 5.85,-2.42 5.94,-5.6 0.09,-3.19 -2.42,-5.85 -5.6,-5.94l0.01 0.05z"/>
  <path id="Path_18_" class="fil0" d="M230.74 154.32c-0.17,3.19 2.27,5.91 5.46,6.09 3.19,0.17 5.91,-2.27 6.09,-5.46 0.16,-2.89 0.21,-5.72 0.21,-8.47l0 -85.85c-0,-2.55 -1.68,-4.8 -4.12,-5.53l-103.92 -31.01c-1.08,-0.32 -2.22,-0.32 -3.3,0l-103.92 31.01c-2.45,0.72 -4.14,2.97 -4.14,5.53l0 85.85c0,39.15 12.27,87.92 107.96,117.77 1.13,0.36 2.34,0.36 3.46,0 5.81,-1.82 11.37,-3.71 16.49,-5.59 1.94,-0.71 3.34,-2.41 3.69,-4.44 0.35,-2.03 -0.41,-4.1 -2,-5.42 -1.59,-1.32 -3.75,-1.69 -5.69,-0.98 -4.45,1.64 -9.24,3.27 -14.23,4.87 -86.95,-27.64 -98.15,-71.24 -98.15,-106.21l0 -81.54 98.15 -29.29 98.15 29.29 0 81.54c0,2.55 -0.04,5.16 -0.19,7.85l0 -0z"/>
 </g>
</svg>
