<?xml version="1.0" encoding="UTF-8"?>
<!DOCTYPE svg PUBLIC "-//W3C//DTD SVG 1.1//EN" "http://www.w3.org/Graphics/SVG/1.1/DTD/svg11.dtd">
<!-- Creator: CorelDRAW -->
<svg xmlns="http://www.w3.org/2000/svg" xml:space="preserve" width="24.4835mm" height="26.7332mm" version="1.1" style="shape-rendering:geometricPrecision; text-rendering:geometricPrecision; image-rendering:optimizeQuality; fill-rule:evenodd; clip-rule:evenodd"
viewBox="0 0 378.67 413.46"
 xmlns:xlink="http://www.w3.org/1999/xlink"
 xmlns:xodm="http://www.corel.com/coreldraw/odm/2003">
 <defs>
  <style type="text/css">
   <![CDATA[
    .fil0 {fill:#47AE53}
   ]]>
  </style>
 </defs>
 <g id="Layer_x0020_1">
  <metadata id="CorelCorpID_0Corel-Layer"/>
  <path class="fil0" d="M123.24 17.95c1.1,-3.49 2.89,-6.71 5.4,-9.45 5.29,-5.78 12.81,-8.5 20.56,-8.5 4.54,0 9.02,0.9 13.26,2.51 8.31,3.15 17.93,5.7 26.88,5.7 8.94,0 18.56,-2.55 26.87,-5.7 4.24,-1.61 8.72,-2.51 13.26,-2.51 7.74,0 15.26,2.72 20.55,8.5 2.5,2.74 4.3,5.96 5.4,9.45 7.69,1.29 14.8,4.81 20.38,10.38 8.22,8.21 11.19,21.16 9.27,32.39 -1.57,9.23 -5.97,17.39 -11.83,24.5 3.16,4.21 4.92,9.36 4.92,14.74 0,3.5 -0.74,6.92 -2.15,10.06 7.1,4.4 13.93,9.22 20.44,14.45 24.79,19.93 44.03,45 57.5,73.81 17.99,38.46 24.73,81.43 24.73,123.63 0,38.77 -15.16,65.74 -52.37,79.03 -37.81,13.51 -96.75,12.49 -136.96,12.49 -40.21,0 -99.15,1.01 -136.96,-12.49 -37.21,-13.29 -52.37,-40.26 -52.37,-79.03 0,-42.21 6.74,-85.17 24.73,-123.63 13.48,-28.82 32.71,-53.88 57.51,-73.81 6.51,-5.23 13.34,-10.06 20.44,-14.46 -1.41,-3.14 -2.16,-6.55 -2.16,-10.05 0,-5.38 1.75,-10.52 4.91,-14.73 -5.87,-7.11 -10.27,-15.27 -11.84,-24.51 -1.91,-11.22 1.06,-24.18 9.27,-32.39 5.58,-5.58 12.69,-9.09 20.38,-10.38zm101.88 106.6l-13.01 0c6.96,17.2 19.18,30.64 36.39,38.49 0.88,0.4 1.83,0.58 2.8,0.53 2.21,-0.13 4.17,-1.46 5.09,-3.48 1.36,-2.99 0.03,-6.53 -2.96,-7.89 -12.69,-5.78 -22.23,-15.37 -28.31,-27.65zm-26.87 0l-13.38 0c-3.87,8.63 -5.48,17.8 -4.89,27.35 0.2,3.26 3.03,5.77 6.29,5.58l0.19 -0c3.11,-0.19 5.62,-3.04 5.42,-6.31 -0.58,-9.53 1.68,-18.57 6.38,-26.62zm-73.15 -18.62l128.48 0c3.29,0 5.95,-2.66 5.95,-5.95 0,-3.29 -2.66,-5.95 -5.95,-5.95l-128.48 0c-3.29,0 -5.95,2.66 -5.95,5.95 0,3.29 2.66,5.95 5.95,5.95zm130.41 -68.81c-2.53,12.81 -8.41,26.49 -14.73,38.27l12.78 0c1.1,0 2.19,0.07 3.27,0.22 5.5,-5.99 10.2,-13.56 10.18,-21.83 -0.01,-4.08 -1.42,-9.3 -4.39,-12.27 -2.02,-2.02 -4.46,-3.48 -7.12,-4.38zm-96.2 38.27l60.04 0c8,-13.27 17.35,-32.36 18.68,-47.19 0.88,-9.81 -7.62,-11.15 -15.24,-8.27 -10.54,3.99 -22.15,6.91 -33.48,6.91 -11.32,0 -22.94,-2.91 -33.47,-6.91 -7.61,-2.89 -16.11,-1.54 -15.23,8.27 1.33,14.83 10.68,33.92 18.68,47.19zm-37.51 0.23c1.09,-0.15 2.19,-0.22 3.29,-0.22l12.78 0c-6.32,-11.78 -12.21,-25.47 -14.73,-38.28 -2.65,0.9 -5.09,2.37 -7.11,4.39 -2.97,2.98 -4.39,8.2 -4.4,12.28 -0.02,8.27 4.67,15.84 10.17,21.82zm134.52 105.99c0.83,0.66 1.59,1.42 2.25,2.28 2.5,3.24 3.37,7.48 2.33,11.44l-6.43 24.64c-0.28,1.09 -0.7,2.12 -1.23,3.07 2.03,0.88 3.83,2.26 5.21,4.05 2.5,3.24 3.37,7.47 2.33,11.44l-6.43 24.64c-1.52,5.83 -6.79,9.9 -12.82,9.9l-6.81 0c-2.76,8.33 -7.08,15.94 -13.19,22.38 -4.6,4.86 -10.03,8.81 -15.87,12.02l36.21 44.42c1.93,2.36 2.98,5.32 2.98,8.37l0 1.75c0,7.31 -5.93,13.24 -13.24,13.24l-43.91 0c-3.92,0 -7.64,-1.73 -10.16,-4.74l-53.61 -64c-1.98,-2.37 -3.07,-5.35 -3.09,-8.44l-0.12 -22.54c-0.01,-1.98 0.42,-3.9 1.24,-5.66 -0.68,-0.58 -1.3,-1.24 -1.86,-1.96 -2.51,-3.24 -3.37,-7.47 -2.33,-11.44l5.68 -21.78c-1.18,-0.77 -2.24,-1.73 -3.13,-2.86 -2.5,-3.16 -3.43,-7.34 -2.5,-11.26l7.47 -31.65c1.41,-5.98 6.75,-10.2 12.89,-10.2l99.92 0c-11,-5.43 -20.46,-12.81 -28.2,-21.98 -2.3,10.44 -11.34,18.62 -22.5,19.31l-0.17 0.01 -0.09 -0.01c-0.29,0.03 -0.78,0.04 -1.26,0.04 -12.96,0 -23.73,-10.14 -24.52,-23.08 -0.6,-9.77 0.57,-19.33 3.56,-28.49l-39.84 0c-2.78,0 -5.53,-0.47 -8.13,-1.38 -72.08,41.88 -98.35,118.27 -98.35,198.75 0,31.03 10.26,50.86 40.01,61.49 16.62,5.94 36.04,8.18 53.56,9.48 25.54,1.88 51.53,1.94 77.14,1.94 25.61,0 51.6,-0.05 77.14,-1.93 17.52,-1.29 36.95,-3.54 53.56,-9.47 29.75,-10.62 40.01,-30.45 40.01,-61.49 0,-80.48 -26.27,-156.86 -98.35,-198.75 -2.61,0.92 -5.35,1.38 -8.13,1.38l-6.48 0c3.76,4.54 8.44,8.15 14.04,10.7 5.97,2.72 10.54,7.61 12.84,13.76 2.29,6.11 2.05,12.85 -0.65,18.8 -3.23,7.09 -9.54,12.13 -16.99,13.8zm-18.94 72.85l3.62 -13.88 -21.05 0 -0.67 -4.6c-0.86,-5.88 -2.75,-11.45 -5.9,-16.51l-5.12 -8.22 29.23 0 3.62 -13.88 -98.68 0 -4.93 20.89 24.71 0c10.9,0.34 20.18,4.54 24.88,14.67l3.55 7.64 -49.47 0 -3.62 13.88 52.96 0 -2.25 7.02c-4.05,12.64 -13.45,19.11 -26.67,19.39l-22.21 0 0.08 15.2 50.75 60.59 31.5 0 -46.75 -57.34 7.66 -2.34c9.25,-2.82 18.65,-7.21 25.41,-14.33 6.24,-6.58 9.56,-14.82 11.03,-23.69l0.75 -4.5 17.57 0z"/>
 </g>
</svg>
